<svg width="41" height="41" viewBox="0 0 41 41" fill="none" xmlns="http://www.w3.org/2000/svg">
<path d="M31.98 25.215C32.5779 23.7629 32.9025 22.2083 32.9025 20.5C32.9025 19.27 32.7146 18.0912 32.39 16.9979C31.2796 17.2542 30.1179 17.3908 28.905 17.3908C26.421 17.3935 23.9728 16.7989 21.7668 15.6573C19.5607 14.5156 17.6615 12.8603 16.2292 10.8308C14.6969 14.5382 11.8065 17.5203 8.14874 19.1675C8.08041 19.5946 8.08041 20.0558 8.08041 20.5C8.08041 22.131 8.40165 23.746 9.02579 25.2528C9.64993 26.7596 10.5648 28.1287 11.718 29.282C14.0471 31.6111 17.2061 32.9196 20.5 32.9196C22.2937 32.9196 24.0192 32.5267 25.5737 31.8262C26.5475 33.6883 26.9917 34.6108 26.9575 34.6108C24.1558 35.5504 21.9862 36.0117 20.5 36.0117C16.3658 36.0117 12.4196 34.3887 9.51541 31.4675C7.74899 29.7065 6.43591 27.5435 5.68874 25.1637H3.41666V17.3908H5.27874C5.8429 14.6447 7.13996 12.1025 9.03227 10.034C10.9246 7.96557 13.3416 6.44794 16.0268 5.64221C18.712 4.83648 21.5652 4.77269 24.2837 5.45762C27.0022 6.14255 29.4846 7.55065 31.4675 9.5325C33.6204 11.6769 35.0888 14.4117 35.6871 17.3908H37.5833V25.1637H37.4808L31.3992 30.75L22.345 29.725V26.8721H30.5962L31.98 25.215ZM15.8362 20.1071C16.3487 20.1071 16.8442 20.3121 17.2029 20.6879C17.5634 21.0514 17.7657 21.5426 17.7657 22.0546C17.7657 22.5665 17.5634 23.0578 17.2029 23.4212C16.8442 23.78 16.3487 23.985 15.8362 23.985C14.76 23.985 13.8887 23.1308 13.8887 22.0546C13.8887 20.9783 14.76 20.1071 15.8362 20.1071ZM25.1467 20.1071C26.2229 20.1071 27.0771 20.9783 27.0771 22.0546C27.0771 23.1308 26.2229 23.985 25.1467 23.985C24.0704 23.985 23.1992 23.1308 23.1992 22.0546C23.1992 21.5381 23.4043 21.0427 23.7696 20.6775C24.1348 20.3123 24.6301 20.1071 25.1467 20.1071Z" fill="#185ADB"/>
</svg>
