<svg width="41" height="41" viewBox="0 0 41 41" fill="none" xmlns="http://www.w3.org/2000/svg">
<path d="M11.3903 13.0463C11.2077 14.9938 11.0796 18.4404 12.2295 19.9074C12.2295 19.9074 11.6882 16.1213 16.5409 11.3711C18.4949 9.45881 18.9465 6.85787 18.2642 4.90717C17.8767 3.80209 17.1688 2.8892 16.5538 2.25178C16.195 1.87701 16.4705 1.25881 16.9926 1.28123C20.1509 1.42217 25.2695 2.29983 27.4444 7.75795C28.3989 10.1539 28.4694 12.6299 28.0145 15.1476C27.7263 16.7555 26.7013 20.3302 29.0395 20.769C30.7084 21.083 31.5156 19.7569 31.8775 18.8023C32.0281 18.4051 32.5502 18.3058 32.832 18.623C35.6508 21.8293 35.891 25.6058 35.3081 28.8569C34.1806 35.1415 27.8159 39.7155 21.493 39.7155C13.5941 39.7155 7.30634 35.1959 5.67595 27.0151C5.01931 23.7127 5.35243 17.1783 10.4454 12.5658C10.8234 12.2199 11.4416 12.5274 11.3903 13.0463Z" fill="url(#paint0_radial_218_485)"/>
<path d="M24.379 24.7986C21.4674 21.0509 22.771 16.7747 23.4853 15.0707C23.5814 14.8465 23.3252 14.6351 23.1234 14.7728C21.8709 15.6248 19.3052 17.63 18.1105 20.4519C16.4929 24.2669 16.6082 26.1343 17.5659 28.4149C18.1425 29.789 17.4731 30.0805 17.1367 30.1318C16.81 30.183 16.5089 29.9652 16.2687 29.7378C15.5776 29.0743 15.0851 28.2313 14.8465 27.3034C14.7952 27.1048 14.5358 27.0504 14.4173 27.2137C13.5204 28.4533 13.0559 30.4425 13.0335 31.8487C12.9631 36.1953 16.5538 39.7187 20.8972 39.7187C26.3713 39.7187 30.3592 33.6648 27.2138 28.6039C26.3009 27.1305 25.4424 26.1663 24.379 24.7986Z" fill="url(#paint1_radial_218_485)"/>
<defs>
<radialGradient id="paint0_radial_218_485" cx="0" cy="0" r="1" gradientUnits="userSpaceOnUse" gradientTransform="translate(19.9285 39.8151) rotate(-179.751) scale(22.6101 37.0987)">
<stop offset="0.314" stop-color="#FF9800"/>
<stop offset="0.662" stop-color="#FF6D00"/>
<stop offset="0.972" stop-color="#F44336"/>
</radialGradient>
<radialGradient id="paint1_radial_218_485" cx="0" cy="0" r="1" gradientUnits="userSpaceOnUse" gradientTransform="translate(21.1983 17.3156) rotate(90.5787) scale(23.6571 17.8038)">
<stop offset="0.214" stop-color="#FFF176"/>
<stop offset="0.328" stop-color="#FFF27D"/>
<stop offset="0.487" stop-color="#FFF48F"/>
<stop offset="0.672" stop-color="#FFF7AD"/>
<stop offset="0.793" stop-color="#FFF9C4"/>
<stop offset="0.822" stop-color="#FFF8BD" stop-opacity="0.804"/>
<stop offset="0.863" stop-color="#FFF6AB" stop-opacity="0.529"/>
<stop offset="0.91" stop-color="#FFF38D" stop-opacity="0.209"/>
<stop offset="0.941" stop-color="#FFF176" stop-opacity="0"/>
</radialGradient>
</defs>
</svg>
