<svg width="20" height="21" viewBox="0 0 20 21" fill="none" xmlns="http://www.w3.org/2000/svg">
<path d="M10 2.16675C10.8241 2.16675 11.6297 2.41112 12.3149 2.86896C13.0001 3.3268 13.5341 3.97754 13.8495 4.7389C14.1649 5.50026 14.2474 6.33804 14.0866 7.14629C13.9258 7.95455 13.529 8.69697 12.9463 9.27969C12.3636 9.86241 11.6211 10.2592 10.8129 10.42C10.0046 10.5808 9.16685 10.4983 8.40549 10.1829C7.64413 9.86755 6.99338 9.3335 6.53554 8.64829C6.0777 7.96309 5.83333 7.1575 5.83333 6.33341C5.83333 5.22835 6.27232 4.16854 7.05372 3.38714C7.83512 2.60573 8.89493 2.16675 10 2.16675ZM10 8.83341C10.4945 8.83341 10.9778 8.68679 11.3889 8.41209C11.8 8.13738 12.1205 7.74694 12.3097 7.29012C12.4989 6.83331 12.5484 6.33064 12.452 5.84569C12.3555 5.36074 12.1174 4.91528 11.7678 4.56565C11.4181 4.21602 10.9727 3.97791 10.4877 3.88145C10.0028 3.78499 9.50011 3.8345 9.04329 4.02372C8.58648 4.21293 8.19603 4.53337 7.92133 4.94449C7.64662 5.35561 7.5 5.83896 7.5 6.33341C7.5 6.99646 7.76339 7.63234 8.23223 8.10118C8.70107 8.57002 9.33696 8.83341 10 8.83341ZM2.5 18.0001V17.1667C2.5 15.6197 3.11458 14.1359 4.20854 13.042C5.30251 11.948 6.78624 11.3334 8.33333 11.3334H11.6667C13.2138 11.3334 14.6975 11.948 15.7915 13.042C16.8854 14.1359 17.5 15.6197 17.5 17.1667V18.0001H15.8333V17.1667C15.8333 16.0617 15.3943 15.0019 14.6129 14.2205C13.8315 13.4391 12.7717 13.0001 11.6667 13.0001H8.33333C7.22826 13.0001 6.16846 13.4391 5.38706 14.2205C4.60565 15.0019 4.16667 16.0617 4.16667 17.1667V18.0001H2.5Z" fill="white"/>
</svg>
